<?xml version="1.0" encoding="utf-8"?>
<svg version="1.1"
	 id="svg4646" xmlns:dc="http://purl.org/dc/elements/1.1/" xmlns:cc="http://creativecommons.org/ns#" xmlns:inkscape="http://www.inkscape.org/namespaces/inkscape" xmlns:sodipodi="http://sodipodi.sourceforge.net/DTD/sodipodi-0.dtd" xmlns:svg="http://www.w3.org/2000/svg" xmlns:rdf="http://www.w3.org/1999/02/22-rdf-syntax-ns#" inkscape:version="0.92.3 (2405546, 2018-03-11)" sodipodi:docname="check green circle.svg"
	 xmlns="http://www.w3.org/2000/svg" xmlns:xlink="http://www.w3.org/1999/xlink" x="0px" y="0px" viewBox="-996 1768.8 48 48"
	 style="enable-background:new -996 1768.8 48 48;" xml:space="preserve">
<style type="text/css">
	.st0{fill:#FF0000;}
	.st1{fill:#FFFFFF;}
</style>
<sodipodi:namedview  inkscape:cx="24" guidetolerance="10" inkscape:cy="24" inkscape:zoom="4.9166667" borderopacity="1" bordercolor="#666666" pagecolor="#ffffff" objecttolerance="10" showgrid="false" gridtolerance="10" id="namedview4648" inkscape:current-layer="g4644" inkscape:window-maximized="1" inkscape:window-y="-8" inkscape:window-x="-8" inkscape:window-width="1920" inkscape:pageshadow="2" inkscape:pageopacity="0" inkscape:window-height="1027">
	</sodipodi:namedview>
<g>
	<circle class="st0" cx="-972" cy="1792.8" r="24"/>
	<g>
		<path class="st1" d="M-970.3,1796.7h-3.3c-0.9,0-1.7-0.7-1.7-1.7v-14.3c0-0.9,0.7-1.7,1.7-1.7h3.3c0.9,0,1.7,0.7,1.7,1.7v14.3
			C-968.7,1796-969.4,1796.7-970.3,1796.7z"/>
		<path class="st1" d="M-970.3,1806.6h-3.3c-0.9,0-1.7-0.7-1.7-1.7v-3.3c0-0.9,0.7-1.7,1.7-1.7h3.3c0.9,0,1.7,0.7,1.7,1.7v3.3
			C-968.7,1805.8-969.4,1806.6-970.3,1806.6z"/>
	</g>
</g>
</svg>
